<svg height="280" viewBox="0 0 264 280" width="264" xmlns="http://www.w3.org/2000/svg" xmlns:xlink="http://www.w3.org/1999/xlink"><defs><circle id="a" cx="120" cy="120" r="120"/><path id="b" d="m124 144.610951v18.389049h4c39.764502 0 72 32.235498 72 72v9h-200v-9c0-39.764502 32.235498-72 72-72h4v-18.389049c-17.2373655-8.188579-29.6277754-24.92394-31.6948612-44.7297125-5.8248283-.8234519-10.3051388-5.8291289-10.3051388-11.8812385v-14c0-5.9459926 4.3245733-10.8819269 10-11.8340831v-6.1659169c0-30.927946 25.072054-56 56-56 30.927946 0 56 25.072054 56 56v6.1659169c5.675427.9521562 10 5.8880905 10 11.8340831v14c0 6.0521096-4.48031 11.0577866-10.305139 11.8812385-2.067086 19.8057725-14.457496 36.5411335-31.694861 44.7297125z"/><mask id="c" fill="#fff"><use fill="#fff" fill-rule="evenodd" xlink:href="#a"/></mask><mask id="d" fill="#fff"><path d="m12 160c0 66.27417 53.72583 120 120 120s120-53.72583 120-120h12v-160h-264v160z" fill="#fff" fill-rule="evenodd"/></mask><mask id="e" fill="#fff"><use fill="#fff" fill-rule="evenodd" xlink:href="#b"/></mask><mask id="f" fill="#fff"><use fill="#fff" fill-rule="evenodd" xlink:href="#j"/></mask><mask id="g" fill="#fff"><path d="m0 0h264v280h-264z" fill="#fff" fill-rule="evenodd"/></mask><mask id="h" fill="#fff"><use fill="#fff" fill-rule="evenodd" xlink:href="#k"/></mask><filter id="i" height="108.3%" width="101.6%" x="-.8%" y="-2.1%"><feOffset dx="0" dy="2" in="SourceAlpha" result="shadowOffsetOuter1"/><feColorMatrix in="shadowOffsetOuter1" type="matrix" values="0 0 0 0 0   0 0 0 0 0   0 0 0 0 0  0 0 0 0.1 0"/></filter><path id="j" d="m165.960472 29.2949161c36.976001 3.0300821 66.039528 33.9993695 66.039528 71.7568079v8.948276h-200v-8.948276c0-38.0991609 29.591985-69.2867428 67.0454063-71.8321976-.0301465.3735881-.0454063.7497008-.0454063 1.1280987 0 11.8630926 14.998461 21.4800293 33.5 21.4800293s33.5-9.6169367 33.5-21.4800293c0-.352956-.013277-.7039237-.039528-1.052709z"/><path id="k" d="m167.308863 35.006118c-20.187772-11.6996071-40.179909-9.7841326-55.271969-5.9761473-15.0920602 3.8079852-24.0200698 14.6213341-31.6802148 30.6180911-3.7610744 7.8547951-5.990661 17.143418-6.3336223 25.8333033-.134614 3.4119015.3253736 6.9337889 1.2446721 10.2189895.3372115 1.2058327 2.1555151 5.3866324 2.6547368 2.0084954.166069-1.124597-.4420615-2.6760995-.5009129-3.8712346-.0771155-1.5682177.0057499-3.1568279.1126293-4.7227056.1998917-2.9274957.7217746-5.7994971 1.6505435-8.5902628 1.3271992-3.9879065 3.0166387-8.311788 5.6027156-11.6765528 6.4009292-8.3275003 17.4812167-8.8022112 26.2788157-13.3845094-.763376 1.4050776-3.70662 3.6796787-2.686868 5.2632744.704187 1.0938411 3.370085.762212 4.64283.7271101 3.348777-.0915991 6.712774-.6742902 10.020625-1.1469953 5.213079-.7451625 10.097741-2.2552114 15.003711-4.0888662 4.016435-1.5016913 8.603457-2.8923939 11.622125-6.0776377 4.871133 5.0476486 11.141169 9.7940898 17.401734 13.0024005 5.617936 2.8793561 14.678337 4.3181984 18.112347 10.157812 4.065139 6.9140651 2.194749 15.4067113 3.436377 22.9001243.472164 2.8496031 1.545017 2.7857511 2.132177.2370212.997091-4.3295647 1.467902-8.8276183 1.150646-13.2785352-.718393-10.0478261-4.405325-36.4535678-24.593098-48.1531749z"/><path id="l" d="m80.4646192 16.3941179c3.9155317-7.93542113 12.0879828-13.3941179 21.5353808-13.3941179 8.919691 0 16.702887 4.86591082 20.839921 12.0880638.210276-.0574134.431598-.0880638.660079-.0880638h8c1.380712 0 2.5 1.1192881 2.5 2.5s-1.119288 2.5-2.5 2.5h-6.536874c.674229 2.2145921 1.036874 4.5649459 1.036874 7 0 13.254834-10.745166 24-24 24s-24-10.745166-24-24c0-1.4218934.1236513-2.8149064.3607874-4.1688727-.0845416-4.3758238-3.4471917-7.8311273-7.4983703-7.8311273-3.7367474 0-6.8876985 2.9397535-7.4206536 6.8300629.3655664 1.6651293.5582365 3.3950329.5582365 5.1699371 0 13.254834-10.745166 24-24 24s-24-10.745166-24-24c0-2.4350541.3626451-4.7854079 1.0368738-7h-6.5368738c-1.38071187 0-2.5-1.1192881-2.5-2.5s1.11928813-2.5 2.5-2.5h8c.228481 0 .4498033.0306504.6600793.0880638 4.1370334-7.22215298 11.9202299-12.0880638 20.8399207-12.0880638 9.3521568 0 17.4549431 5.34919095 21.415666 13.15488 2.0772552-3.1156075 5.5337772-5.15488 9.4467511-5.15488 4.0122652 0 7.5446197 2.1440781 9.6022021 5.3941179zm-40.4646192 30.6058821c11.045695 0 20-8.954305 20-20s-8.954305-20-20-20-20 8.954305-20 20 8.954305 20 20 20zm62 0c11.045695 0 20-8.954305 20-20s-8.954305-20-20-20-20 8.954305-20 20 8.954305 20 20 20z"/></defs><g fill="none" fill-rule="evenodd"><g transform="translate(12 40)"><use fill="#e6e6e6" xlink:href="#a"/><g fill="#65c9ff" mask="url(#c)"><path d="m0 0h240v240h-240z"/></g></g><g mask="url(#d)"><g transform="translate(32 36)"><use fill="#d0c6ac" xlink:href="#b"/><g fill="#ffdbb4" mask="url(#e)"><path d="m0 0h264v280h-264z"/></g><path d="m156 79v23c0 30.927946-25.072054 56-56 56s-56-25.072054-56-56v-23 15c0 30.927946 25.072054 56 56 56s56-25.072054 56-56z" fill="#000" fill-opacity=".1" mask="url(#e)"/></g><g fill-rule="evenodd" transform="translate(0 170)"><use fill="#e6e6e6" xlink:href="#j"/><g fill="#262e33" mask="url(#f)"><path d="m0 0h264v110h-264z"/></g><g fill="#000" fill-opacity=".16" mask="url(#f)" opacity=".6"><ellipse cx="40.5" cy="27.847625" rx="39.635105" ry="26.913827" transform="translate(92 4)"/></g></g><g fill="#000" transform="translate(76 82)"><g transform="translate(2 52)"><path d="m16.1906378 10.106319c-.1726894-5.11078553-4.3982912-9.30912531-9.89711395-10.106319 3.36651739 1.95870633 5.68693805 5.49520667 5.68693805 9.67694348 0 5.66766452-5.47351459 10.56818612-11.80387021 10.56818612-.05897951 0-.11784411-.0003313-.17659169-.0009916 1.35764479.4875879 2.83995964.755862 4.39225962.755862 5.32169969 0 9.82086278-3.1530301 11.29409758-7.4863598 2.4745859 2.1562373 6.1766422 3.5257827 10.3136428 3.5257827s7.8390569-1.3695454 10.3136428-3.5257827c1.4732348 4.3333297 5.9723979 7.4863598 11.2940976 7.4863598 1.5523 0 3.0346148-.2682741 4.3922596-.755862-.0587476.0006603-.1176122.0009916-.1765917.0009916-6.3303556 0-11.8038702-4.9005216-11.8038702-10.56818612 0-4.18173681 2.3204207-7.71823715 5.686938-9.67694348-5.4988227.79719369-9.7244245 4.99553347-9.8971139 10.106319-2.5641017 1.7359638-6.0145079 2.7992896-9.8093622 2.7992896s-7.2452605-1.0633258-9.8093622-2.7992896z" fill="#000" fill-opacity=".6" opacity=".6" transform="translate(28 6)"/><g fill="#ff4646" fill-opacity=".2"><circle cx="17" cy="15" r="9"/><circle cx="91" cy="15" r="9"/></g></g><path d="m16 8c0 4.418278 5.372583 8 12 8 6.627417 0 12-3.581722 12-8" fill-opacity=".16" transform="translate(28 40)"/><g fill-opacity=".6"><g transform="translate(0 8)"><circle cx="30" cy="22" r="6"/><circle cx="82" cy="22" r="6"/></g><g fill-rule="nonzero"><path d="m15.9726042 19.4088529c1.4797518-8.3884825 14.0896646-14.18055633 23.2380411-10.4313736 1.0148253.41589519 2.1910514-.03147711 2.6271743-.99923399.436123-.96775689-.033008-2.08942853-1.0478334-2.50532372-11.4442534-4.69007778-26.8349598 2.37928973-28.7619589 13.30314681-.1832373 1.0387438.5512431 2.0224656 1.6405079 2.1972042 1.0892648.1747387 2.1208316-.5256759 2.304069-1.5644197z" transform="matrix(-1 0 0 -1 54.000828 25)"/><path d="m73.9726042 19.4088529c1.4797518-8.3884825 14.0896646-14.18055633 23.2380411-10.4313736 1.0148253.41589519 2.1910514-.03147711 2.6271743-.99923399.4361234-.96775689-.033008-2.08942853-1.0478334-2.50532372-11.4442534-4.69007778-26.8349598 2.37928973-28.7619589 13.30314681-.1832373 1.0387438.5512431 2.0224656 1.6405079 2.1972042 1.0892648.1747387 2.1208316-.5256759 2.304069-1.5644197z" transform="matrix(1 0 0 -1 0 25)"/></g></g></g><g fill-rule="evenodd" mask="url(#g)"><g transform="translate(-1)"><use fill="#28354b" fill-rule="evenodd" xlink:href="#k"/><g fill="#2c1b18" mask="url(#h)"><path d="m0 0h264v280h-264z"/></g><g fill="none" transform="translate(62 85)"><use fill="#000" filter="url(#i)" xlink:href="#l"/><use fill="#252c2f" fill-rule="evenodd" xlink:href="#l"/></g></g></g></g></g></svg>